<?xml version="1.0" encoding="utf-8"?>
<!-- Generator: Adobe Illustrator 19.0.0, SVG Export Plug-In . SVG Version: 6.00 Build 0)  -->
<svg version="1.1" id="Layer_1" xmlns="http://www.w3.org/2000/svg" xmlns:xlink="http://www.w3.org/1999/xlink" x="0px" y="0px"
	 viewBox="0 0 100 100" style="enable-background:new 0 0 100 100;" xml:space="preserve">
<style type="text/css">
	.st0{fill:#71C061;stroke:#000000;stroke-width:0.25;stroke-miterlimit:10;}
	.st1{fill:#6BBE45;stroke:#000000;stroke-width:0.25;stroke-miterlimit:10;}
	.st2{fill:#0CB04B;stroke:#000000;stroke-width:0.25;stroke-miterlimit:10;}
	.st3{fill:#109D49;stroke:#000000;stroke-width:0.25;stroke-miterlimit:10;}
	.st4{fill:#24B56E;stroke:#000000;stroke-width:0.25;stroke-miterlimit:10;}
	.st5{fill:#CAE090;stroke:#000000;stroke-width:0.25;stroke-miterlimit:10;}
	.st6{fill:#E2E424;stroke:#000000;stroke-width:0.25;stroke-miterlimit:10;}
	.st7{fill:#D7E376;stroke:#000000;stroke-width:0.25;stroke-miterlimit:10;}
</style>
<path class="st0" d="M55.7,70.9c5.4-10.8,8.2-23,7.9-35c-0.2-10.5-2.7-21.1-1-31.5c0-0.3,0.2-0.7,0.5-0.7c0.3,0,0.5,0.3,0.6,0.5
	C71,18,74.5,33.6,75,49.3c0.2,4.5-0.1,9.4-3,12.8c-3.7,4.3-10.3,4.5-15.2,7.5c-1.9,1.2-3.5,2.8-5.4,4"/>
<path class="st1" d="M23.8,30.7c0.6,11.9-1.2,24,1.2,35.6c1.5,7.3,4.7,14.1,7.9,20.9c-1.1-7.3-4-14.2-5.6-21.4
	c-1.7-7.8-1.7-15.9-1.6-24c0-6.8,0.1-13.7,1.3-20.4c-2,11-2.9,22.3-2.4,33.5"/>
<path class="st2" d="M51.9,94.8c-11.5-24.3-15.8-52-12.3-78.7c2.4,17.7,4.8,35.3,7.2,53c0.7,5.4,1.5,10.8,3,16
	c1.1,3.7,2.6,7.3,2.6,11.1c-1.2-1.7-2.3-3.3-3.5-5c-1-1.4-2-2.8-2.7-4.4c-1-2.1-1.5-4.4-2-6.6c-1.6-7.3-3.1-14.6-4.7-21.9
	c-3-14.1-6.1-28.3-7.5-42.7c-0.5,5.5-0.8,11-0.7,16.5c0.3,13.8,2.6,27.6,4.8,41.2c0.6,3.4,1.1,6.7,2.1,10c0.5,1.9,1.3,3.9,2.6,5.4
	c0.9,1.1,2,1.9,3.1,2.7c3.4,2.8,6.3,6.2,9.1,9.7c1.1-0.4,1.8-1.3,2.5-2.3c10.3-14.2,20.9-28.7,26.1-45.5c2.6-8.5,3.8-17.3,4.9-26.1
	c-4.6,22.2-14,43.2-25.8,62.5c-1.3,2.1-2.9,4.5-5.4,4.9c-1.3,0.2-3,0.1-3.6,1.3c-0.2-5.5,1.3-10.8,2.5-16.2c1.9-8.2,3-16.6,3.4-25
	c-3.3,12.3-7,24.4-11,36.5"/>
<path class="st3" d="M19.1,96.4c-0.5-4.2-2.5-8-4.1-11.9C8,67.8,6.7,49.3,7.5,31.2c-0.8,9.2-1.5,18.4-1,27.6
	C7.2,70.3,9.9,81.5,10.9,93c0.1,1.2,0.2,2.5-0.4,3.5c-3.2-6.1-6.4-12.2-9.6-18.2C1,84.9,1.1,91.6,1.2,98.3c-0.6-1.6-1.1-3.1-1.7-4.7
	c0.7-0.4,1.5,0.3,2,1c1.8,2.4,3.6,4.8,5.3,7.3c0.6,0.8,1.4,1.6,2.3,1.2c0.4-0.2,0.6-0.5,0.8-0.8c2.7-3.8,6.1-7.1,9.9-9.8
	c0.4,1.5,1,3,1.8,4.3c0.8-0.6,0.9-1.8,0.8-2.8c-0.1-3.9-0.9-7.8-2.4-11.5c3.6,5,6.7,10.4,9.1,16.1c-6.4-0.4-12.8-1.2-19.1-2.2"/>
<path class="st4" d="M85.6,59.1c5.3-6.8,6.7-15.7,7.7-24.2c1.3-10.7,2.3-22.3-3.2-31.6c0.3,15.1,0.7,30.3-1.1,45.3
	c-0.3,2.7-0.7,5.4-1.6,8c-0.9,2.5-2.3,4.9-3,7.5c-0.7,2.8-0.6,5.7-0.6,8.6c0,7.5-0.9,15.1-2.7,22.4c-1.6-0.6-2.1-2.6-2.3-4.4
	c-0.8-7.8-0.5-15.8,0.9-23.5c0.2,5,0.4,10.1-0.7,15c-0.5,2.3-1.2,4.5-2,6.6c-1.7,4.9-3.3,9.8-5,14.6c-0.3-2,0.7-4.1,1.9-5.7
	c1.3-1.6,2.9-2.9,4.3-4.4c3.2-3.4,5.4-7.6,7.2-11.8c5-11.6,7.9-24,8.5-36.6c0.4,13.6,0.9,27.2-0.6,40.7c-1,8.8-2.8,17.6-2.6,26.4
	c-1.1-1-1.6-2.4-2.1-3.8c-3.6-11-5.1-22.7-6.4-34.2c-0.3-2.7-0.7-5.4-0.5-8.2c0.3-4,1.7-7.9,2.8-11.8c4.7-16.3,3.9-33.5,3.2-50.5
	c2.2,19.4-2.8,38.9-4.7,58.3c-1.3,13.8-1.1,27.7-0.8,41.5c-0.1-11.8-0.2-23.7-0.3-35.5c0-3.8,0.2-8.1,3-10.6c0.8,0.9,1.1,2.1,1,3.2"
	/>
<path class="st5" d="M10.5-0.5c-2,8.8-1.9,18.1,0.4,26.9c2.4-4.2,1-10.2,4.5-13.5c2.5,8.6,0.2,17.9,2.2,26.7
	c0.3-12.3,0.6-24.6,0.9-36.9c-3.6,10.9-7.3,22-7,33.4c-2-12.9-2.3-26-1-38.9C9.6,9.1,9.1,21,9.1,33c0,1.6,0,3.3,0.3,4.9
	c1,5.1,4.7,9.3,5.6,14.4C15,47.1,15,42,15,36.8c0-1.2,0-2.4,0.3-3.6c0.2-1,0.6-1.9,1-2.8c3.3-7.5,6.7-15.1,10-22.6
	c-2.5,4-5.4,7.8-8.7,11.2c-1.9,1.9-3.9,3.8-5.3,6.1c-2.3,3.7-2.7,8.2-3.1,12.5"/>
<path class="st6" d="M30.2,97.3c-1.2-3.6-2.1-7.4-2.8-11.1c1.7,2.4,3.4,4.8,5.1,7.2c0.4,0.6,0.8,1.2,1.2,1.8c0.6,1.1,1,2.3,1.3,3.6
	c0.7-3.5,1.2-7,1.5-10.5c0.5,0.3,0.6,0.9,0.6,1.5c0.2,2.4,0.3,4.7,0.2,7.1c0,0.2,0,0.5-0.2,0.6c-0.2,0.2-0.4,0.2-0.6,0.2
	c-1.6,0-3.3,0-4.9,0c-1.6,0-3.4-0.1-4.4-1.4c0.6-0.2,1.1-0.7,1.2-1.4c0-0.2,0.1-0.3,0.2-0.4c0.3-0.4,0.9,0,1.3,0.4
	c0.6,0.5,1.5,0.7,2.3,0.4"/>
<path class="st7" d="M81,7.3c0.1,5.4,0,10.9-0.1,16.3c1.6-1.1,2.8-2.7,3.4-4.6c0.6,1.3,0.8,2.8,0.5,4.2c-3.1-4.9-4.9-10.7-5.2-16.5
	c0,8,0,16,0,24c-0.1-7.6,2.8-15,2.4-22.5c2.5,8.1,3.4,16.7,2.9,25.2C82.6,29,81.7,24,80.9,19"/>
</svg>
